<?xml version="1.0" encoding="UTF-8"?><svg id="Layer_2" xmlns="http://www.w3.org/2000/svg" viewBox="0 0 304.57 106.6"><defs><style>.cls-1{fill:#262729;stroke:#535456;stroke-width:4.57px;}.cls-2,.cls-3{fill:#fff;}.cls-3{fill-rule:evenodd;}</style></defs><g id="app-store"><rect class="cls-1" x="2.28" y="2.28" width="300" height="102.03" rx="12.94" ry="12.94"/><path class="cls-2" d="M136.14,38.33c0,.87-.18,1.63-.54,2.28-.35,.64-.86,1.14-1.55,1.5-.67,.36-1.48,.54-2.42,.54h-2.88v-8.6h2.88c.94,0,1.75,.18,2.42,.54,.68,.35,1.2,.84,1.55,1.49,.36,.64,.54,1.4,.54,2.27Zm-4.62,3.06c1.03,0,1.82-.27,2.38-.8,.55-.54,.83-1.29,.83-2.25s-.28-1.72-.83-2.25c-.55-.54-1.34-.8-2.38-.8h-1.38v6.12h1.38Zm9.08-5.54c.65,0,1.23,.14,1.75,.41,.52,.28,.93,.67,1.22,1.19,.29,.52,.44,1.13,.44,1.83s-.15,1.32-.44,1.84-.7,.92-1.22,1.19c-.52,.28-1.1,.41-1.75,.41s-1.23-.14-1.75-.41c-.51-.28-.92-.67-1.22-1.19-.29-.53-.44-1.14-.44-1.84s.15-1.31,.44-1.83c.3-.52,.71-.92,1.22-1.19,.52-.28,1.1-.41,1.75-.41Zm0,1.21c-.36,0-.69,.08-.99,.24-.3,.16-.54,.41-.73,.76-.18,.33-.27,.74-.27,1.23s.09,.91,.27,1.24c.19,.33,.43,.58,.73,.74,.3,.16,.63,.24,.99,.24s.69-.08,.99-.24c.3-.16,.54-.41,.72-.74,.19-.33,.28-.75,.28-1.24s-.09-.9-.28-1.23c-.18-.34-.42-.59-.72-.76-.3-.16-.63-.24-.99-.24Zm14.15-1.12l-1.86,6.71h-1.53l-1.66-5.19-1.68,5.19h-1.52l-1.86-6.71h1.4l1.28,5.43,1.68-5.43h1.46l1.71,5.43,1.28-5.43h1.32Zm4.7-.11c.78,0,1.41,.25,1.88,.76,.47,.5,.71,1.22,.71,2.16v3.91h-1.39v-3.76c0-.6-.15-1.06-.46-1.39-.31-.33-.73-.5-1.27-.5s-.99,.18-1.33,.54c-.33,.35-.5,.86-.5,1.55v3.57h-1.39v-6.71h1.39v1.47c.18-.5,.48-.89,.9-1.17,.42-.28,.91-.41,1.46-.41Zm5.6-2.19v9.02h-1.39v-9.02h1.39Zm4.75,2.22c.65,0,1.23,.14,1.75,.41,.52,.28,.93,.67,1.22,1.19,.29,.52,.44,1.13,.44,1.83s-.15,1.32-.44,1.84c-.29,.52-.7,.92-1.22,1.19-.52,.28-1.11,.41-1.75,.41s-1.24-.14-1.75-.41c-.51-.28-.92-.67-1.22-1.19-.29-.53-.44-1.14-.44-1.84s.15-1.31,.44-1.83c.3-.52,.71-.92,1.22-1.19,.52-.28,1.1-.41,1.75-.41Zm0,1.21c-.36,0-.69,.08-.99,.24-.3,.16-.55,.41-.73,.76-.18,.33-.27,.74-.27,1.23s.09,.91,.27,1.24c.19,.33,.43,.58,.73,.74,.3,.16,.63,.24,.99,.24s.69-.08,.99-.24c.3-.16,.54-.41,.72-.74,.19-.33,.28-.75,.28-1.24s-.09-.9-.28-1.23c-.18-.34-.42-.59-.72-.76-.3-.16-.63-.24-.99-.24Zm7.44-1.21c.61,0,1.13,.15,1.56,.45,.43,.3,.74,.7,.91,1.19v-1.56h1.39v6.71h-1.39v-1.56c-.18,.5-.48,.89-.91,1.19-.43,.3-.95,.45-1.56,.45s-1.11-.14-1.57-.41c-.45-.28-.81-.67-1.07-1.19-.26-.52-.39-1.13-.39-1.84s.13-1.31,.39-1.83c.26-.52,.62-.92,1.07-1.19,.46-.28,.99-.41,1.57-.41Zm.43,1.22c-.62,0-1.11,.2-1.49,.6-.37,.39-.55,.93-.55,1.62s.18,1.23,.55,1.63c.37,.39,.87,.58,1.49,.58,.39,0,.74-.09,1.05-.27,.31-.19,.55-.45,.73-.78,.18-.33,.27-.72,.27-1.17s-.09-.82-.27-1.16c-.18-.34-.42-.6-.73-.78-.31-.19-.66-.28-1.05-.28Zm7.8-1.22c.61,0,1.13,.15,1.56,.45,.43,.3,.73,.7,.9,1.19v-3.86h1.4v9.02h-1.4v-1.56c-.17,.5-.47,.89-.9,1.19-.43,.3-.95,.45-1.56,.45s-1.11-.14-1.57-.41c-.46-.28-.81-.67-1.07-1.19-.26-.52-.39-1.13-.39-1.84s.13-1.31,.39-1.83c.26-.52,.62-.92,1.07-1.19,.46-.28,.99-.41,1.57-.41Zm.43,1.22c-.62,0-1.11,.2-1.49,.6-.37,.39-.55,.93-.55,1.62s.18,1.23,.55,1.63c.37,.39,.87,.58,1.49,.58,.39,0,.74-.09,1.05-.27,.31-.19,.55-.45,.73-.78,.18-.33,.27-.72,.27-1.17s-.09-.82-.27-1.16c-.18-.34-.42-.6-.73-.78-.31-.19-.66-.28-1.05-.28Zm11.03-1.22c.65,0,1.24,.14,1.75,.41,.52,.28,.93,.67,1.22,1.19,.29,.52,.44,1.13,.44,1.83s-.15,1.32-.44,1.84c-.29,.52-.7,.92-1.22,1.19-.52,.28-1.1,.41-1.75,.41s-1.23-.14-1.75-.41c-.51-.28-.92-.67-1.22-1.19-.29-.53-.44-1.14-.44-1.84s.15-1.31,.44-1.83c.3-.52,.71-.92,1.22-1.19,.52-.28,1.11-.41,1.75-.41Zm0,1.21c-.36,0-.69,.08-.99,.24-.3,.16-.54,.41-.73,.76-.18,.33-.27,.74-.27,1.23s.09,.91,.27,1.24c.19,.33,.43,.58,.73,.74,.3,.16,.63,.24,.99,.24s.69-.08,.99-.24c.3-.16,.54-.41,.72-.74,.19-.33,.28-.75,.28-1.24s-.09-.9-.28-1.23c-.18-.34-.42-.59-.72-.76-.3-.16-.63-.24-.99-.24Zm8.5-1.23c.78,0,1.41,.25,1.88,.76s.71,1.22,.71,2.16v3.91h-1.39v-3.76c0-.6-.15-1.06-.46-1.39-.31-.33-.73-.5-1.27-.5s-.99,.18-1.33,.54c-.33,.35-.5,.86-.5,1.55v3.57h-1.39v-6.71h1.39v1.47c.18-.5,.48-.89,.9-1.17,.42-.28,.91-.41,1.46-.41Zm10.44,5.62v1.21h-.85c-.72,0-1.26-.17-1.63-.51-.37-.35-.55-.93-.55-1.73v-3.29h-.96v-1.18h.96v-1.67h1.4v1.67h1.62v1.18h-1.62v3.31c0,.38,.07,.65,.21,.79,.15,.15,.4,.22,.76,.22h.67Zm5.05-5.62c.78,0,1.41,.25,1.88,.76s.71,1.22,.71,2.16v3.91h-1.39v-3.76c0-.6-.15-1.06-.46-1.39-.31-.33-.73-.5-1.27-.5s-.99,.18-1.33,.54c-.33,.35-.5,.86-.5,1.55v3.57h-1.39v-9.02h1.39v3.78c.18-.5,.48-.89,.9-1.17,.42-.28,.91-.41,1.46-.41Zm10.44,3.14c0,.23-.02,.43-.05,.6h-5.17c.02,.69,.22,1.2,.57,1.54,.36,.33,.8,.5,1.33,.5,.46,0,.85-.12,1.17-.35,.33-.24,.52-.55,.6-.94h1.49c-.09,.47-.28,.89-.56,1.25-.28,.37-.65,.65-1.11,.86-.45,.2-.96,.3-1.52,.3-.65,0-1.23-.14-1.73-.41-.49-.28-.88-.67-1.17-1.19-.28-.52-.43-1.13-.43-1.84s.14-1.31,.43-1.83c.28-.52,.67-.92,1.17-1.19,.5-.28,1.08-.41,1.73-.41s1.23,.14,1.72,.41c.5,.27,.87,.64,1.13,1.12,.27,.47,.4,1,.4,1.58Zm-1.4-.04c.02-.44-.06-.8-.23-1.1-.16-.3-.39-.52-.68-.66-.28-.15-.6-.22-.94-.22-.54,0-1,.17-1.36,.5-.37,.33-.56,.82-.6,1.47h3.81Z"/><path class="cls-2" d="M139.96,69.64h-6.9l-1.22,3.46h-3.63l6.34-17.01h3.92l6.31,17.01h-3.63l-1.19-3.46Zm-.93-2.61l-2.53-7.26-2.53,7.26h5.07Zm15.67-7.6c1.14,0,2.16,.28,3.07,.83,.91,.55,1.62,1.36,2.12,2.41,.52,1.04,.78,2.27,.78,3.68s-.26,2.65-.78,3.7c-.5,1.04-1.21,1.84-2.12,2.39-.91,.55-1.93,.83-3.07,.83s-2.11-.27-2.92-.8c-.8-.55-1.36-1.28-1.71-2.19v9.26h-3.44v-19.93h3.44v2.8c.34-.91,.91-1.63,1.71-2.17,.81-.54,1.79-.8,2.92-.8Zm-1.07,3c-1.04,0-1.9,.36-2.58,1.07-.67,.7-1,1.65-1,2.85s.33,2.14,1,2.85c.68,.7,1.54,1.05,2.58,1.05s1.93-.34,2.58-1.02c.65-.7,.97-1.66,.97-2.88s-.33-2.18-.97-2.88c-.65-.7-1.51-1.05-2.58-1.05Zm17.54-3c1.14,0,2.16,.28,3.07,.83,.91,.55,1.62,1.36,2.12,2.41,.52,1.04,.78,2.27,.78,3.68s-.26,2.65-.78,3.7c-.5,1.04-1.21,1.84-2.12,2.39-.91,.55-1.93,.83-3.07,.83s-2.11-.27-2.92-.8c-.8-.55-1.36-1.28-1.71-2.19v9.26h-3.44v-19.93h3.44v2.8c.34-.91,.91-1.63,1.71-2.17,.81-.54,1.79-.8,2.92-.8Zm-1.07,3c-1.04,0-1.9,.36-2.58,1.07-.67,.7-1,1.65-1,2.85s.33,2.14,1,2.85c.68,.7,1.54,1.05,2.58,1.05s1.93-.34,2.58-1.02c.65-.7,.97-1.66,.97-2.88s-.32-2.18-.97-2.88c-.65-.7-1.51-1.05-2.58-1.05Zm26.6,5.97c0,.88-.22,1.69-.66,2.44-.44,.73-1.09,1.32-1.95,1.78-.86,.44-1.91,.66-3.14,.66s-2.31-.2-3.26-.61c-.96-.42-1.73-1.02-2.31-1.8-.57-.78-.89-1.69-.97-2.73h3.65c.08,.7,.36,1.28,.83,1.75,.49,.45,1.13,.68,1.92,.68,.71,0,1.26-.19,1.63-.56,.39-.39,.58-.89,.58-1.49,0-.54-.15-.97-.46-1.32-.31-.36-.7-.64-1.17-.85-.47-.21-1.12-.45-1.95-.73-1.07-.36-1.95-.71-2.63-1.05-.68-.36-1.27-.87-1.75-1.54-.47-.67-.71-1.54-.71-2.61,0-1.48,.53-2.64,1.58-3.48,1.07-.86,2.49-1.29,4.24-1.29s3.26,.44,4.34,1.32c1.09,.88,1.71,2.05,1.85,3.51h-3.7c-.1-.62-.36-1.12-.78-1.51-.42-.41-1-.61-1.73-.61-.63,0-1.15,.17-1.54,.51-.39,.32-.58,.8-.58,1.44,0,.5,.15,.93,.44,1.27,.31,.32,.69,.59,1.15,.8,.47,.21,1.1,.45,1.9,.71,1.1,.39,2,.76,2.68,1.1,.7,.34,1.29,.85,1.78,1.54,.49,.68,.73,1.58,.73,2.68Zm9.74,1.75v2.95h-1.8c-1.51,0-2.67-.37-3.48-1.1-.8-.73-1.19-1.95-1.19-3.65v-5.85h-1.88v-2.9h1.88v-3.34h3.44v3.34h3.02v2.9h-3.02v5.9c0,.65,.13,1.1,.39,1.36,.26,.26,.7,.39,1.32,.39h1.34Zm8.71-10.72c1.32,0,2.49,.28,3.53,.83,1.06,.55,1.89,1.36,2.49,2.41,.6,1.04,.9,2.27,.9,3.68s-.3,2.64-.9,3.68c-.6,1.04-1.43,1.84-2.49,2.41-1.04,.55-2.22,.83-3.53,.83s-2.5-.28-3.56-.83c-1.04-.57-1.86-1.37-2.46-2.41-.6-1.04-.9-2.27-.9-3.68s.3-2.64,.9-3.68c.6-1.06,1.42-1.86,2.46-2.41,1.06-.55,2.24-.83,3.56-.83Zm0,2.97c-.96,0-1.77,.34-2.44,1.02-.67,.67-1,1.64-1,2.92s.33,2.27,1,2.95c.67,.67,1.48,1,2.44,1s1.77-.33,2.44-1c.67-.68,1-1.66,1-2.95s-.33-2.26-1-2.92c-.67-.68-1.48-1.02-2.44-1.02Zm12.78-.22c.5-.86,1.17-1.54,2-2.02,.83-.5,1.75-.76,2.78-.76v3.68h-1c-2.52,0-3.78,1.17-3.78,3.51v6.51h-3.44v-13.5h3.44v2.58Zm19.37,3.65c0,.34-.04,.73-.12,1.17h-9.89c.05,1.2,.37,2.09,.97,2.66,.6,.57,1.35,.85,2.24,.85,.8,0,1.45-.19,1.97-.58,.54-.39,.88-.92,1.02-1.58h3.63c-.18,.94-.56,1.79-1.15,2.53-.58,.75-1.34,1.33-2.27,1.75-.91,.42-1.92,.63-3.05,.63-1.32,0-2.49-.28-3.51-.83-1.02-.57-1.82-1.37-2.39-2.41-.57-1.04-.85-2.27-.85-3.68s.28-2.64,.85-3.68c.57-1.06,1.36-1.86,2.39-2.41,1.02-.55,2.19-.83,3.51-.83s2.49,.28,3.48,.83c1.01,.55,1.78,1.32,2.31,2.29,.55,.96,.83,2.05,.83,3.29Zm-3.46-.34c.05-1.1-.24-1.94-.88-2.51-.62-.57-1.38-.85-2.29-.85s-1.71,.28-2.34,.85c-.63,.57-.98,1.41-1.05,2.51h6.55Z"/><path class="cls-3" d="M79.13,39.28c-.24-3.53,1.5-10.84,10.4-11.87,.29,3.86-1.39,11.64-10.4,11.87Zm.43,3.15c-2.84-1.57-9.74-3.95-14.59-.86-6.07,3.86-7.66,9.29-6.94,16.87,.72,7.58,5.49,14.73,6.5,16.01,1.01,1.29,4.05,4.86,6.94,4.72,1.36-.07,2.81-.58,4.26-1.08,1.63-.57,3.25-1.14,4.7-1.06,1.26,.07,2.68,.59,4.08,1.1,1.64,.6,3.26,1.2,4.59,1.04,4.33-.5,9.1-6.29,11.41-13.72-3.03-1.57-7.08-4.86-7.08-10.29,0-6,3.9-9.01,5.63-10.15-1.01-1.72-4.16-5.15-8.67-5.15-4.15,0-6.89,1.08-8.91,1.89-.72,.29-1.36,.54-1.93,.69Z"/></g></svg>