<?xml version="1.0" encoding="UTF-8"?>
<svg xmlns="http://www.w3.org/2000/svg" width="30" height="30" viewBox="0 0 30 30" fill="none">
  <path d="M3.93643 8.91421C4.42644 8.91421 4.91646 8.68452 5.22272 8.24044C6.30993 6.67852 7.70341 5.42286 9.40314 4.5194C11.1029 3.61594 12.9251 3.14124 14.8239 3.11061C15.6814 3.0953 16.3705 2.3909 16.3552 1.53338C16.3399 0.675853 15.6049 -0.0438543 14.778 0.00208452C12.4045 0.0327104 10.031 0.645228 7.9331 1.77838C5.81992 2.89623 3.99768 4.53471 2.65014 6.47945C2.16013 7.18385 2.34388 8.16388 3.04828 8.65389C3.3086 8.82233 3.63017 8.91421 3.93643 8.91421Z" fill="#0781FE"></path>
  <path d="M24.7773 21.761C23.6901 23.3229 22.2966 24.5785 20.5968 25.482C18.8971 26.3855 17.0749 26.8602 15.1761 26.8908C14.3186 26.9061 13.6295 27.6105 13.6448 28.468C13.6601 29.3255 14.3492 29.9993 15.2067 29.9993H15.222C17.5955 29.9687 19.969 29.3562 22.0669 28.223C24.1801 27.1052 26.0023 25.4667 27.3499 23.5219C27.8399 22.8175 27.6561 21.8375 26.9517 21.3475C26.2473 20.8728 25.2673 21.0566 24.7773 21.761Z" fill="#0781FE"></path>
  <path d="M4.51756 20.5987C3.6141 18.899 3.1394 17.0767 3.10878 15.1779C3.09346 14.3204 2.37376 13.6007 1.53155 13.6466C0.674022 13.6619 -0.0150626 14.3663 0.000250359 15.2238C0.0308762 17.5974 0.643396 19.9709 1.77655 22.0687C2.8944 24.1819 4.53288 26.0042 6.47762 27.3517C6.75325 27.5354 7.05951 27.6273 7.36577 27.6273C7.85578 27.6273 8.3458 27.3976 8.65205 26.9536C9.14207 26.2492 8.95831 25.2691 8.25392 24.7791C6.66138 23.7072 5.42103 22.2984 4.51756 20.5987Z" fill="#0781FE"></path>
  <path d="M28.2366 7.93506C27.1034 5.82187 25.4803 3.99963 23.5355 2.65209C22.8311 2.16208 21.8511 2.34584 21.3611 3.05023C20.8711 3.75463 21.0548 4.73465 21.7592 5.22467C23.3211 6.31189 24.5768 7.70536 25.4803 9.4051C26.3837 11.0895 26.8584 12.9271 26.889 14.8259C26.9044 15.6834 27.5934 16.3572 28.451 16.3572H28.4663C29.3238 16.3419 30.0129 15.6375 29.9976 14.7799C29.9669 12.4064 29.3544 10.0329 28.2366 7.93506Z" fill="#0781FE"></path>
  <path d="M18.6373 22.0672C18.8057 22.1438 18.9742 22.1897 19.1426 22.1897C19.4029 22.1897 19.6479 22.1131 19.847 21.9447C20.1992 21.6691 20.3523 21.225 20.2604 20.7962L19.4335 17.0599L22.1899 14.2117C22.4961 13.8901 22.588 13.4307 22.4349 13.0173C22.2818 12.6038 21.8989 12.3129 21.4702 12.2669L17.7185 11.8994L16.0188 8.46932C15.8197 8.07118 15.4216 7.82617 14.9928 7.82617C14.5487 7.82617 14.1506 8.07118 13.9668 8.46932L12.2671 11.8994L8.51543 12.2669C8.07135 12.3129 7.70385 12.6038 7.55072 13.0173C7.4129 13.4001 7.50478 13.8748 7.81104 14.181L10.5674 17.0292L9.74046 20.7656C9.64859 21.1944 9.80171 21.6537 10.1539 21.9141C10.5061 22.1897 10.9808 22.2356 11.379 22.0366L15.0081 20.2296L18.6373 22.0672ZM12.4968 18.928L12.9409 16.9374C13.0174 16.5545 12.9102 16.1717 12.6499 15.8961L11.1186 14.3035L13.1399 14.1045C13.5381 14.0738 13.8903 13.8288 14.0587 13.4766L15.0081 11.5625L15.9575 13.4766C16.126 13.8288 16.4782 14.0738 16.8763 14.1045L18.8976 14.3035L17.3663 15.8961C17.106 16.1717 16.9835 16.5699 17.0754 16.9374L17.5194 18.928L15.5288 17.9327C15.2072 17.7796 14.8244 17.7796 14.5028 17.9327L12.4968 18.928Z" fill="#0781FE"></path>
</svg>
