<svg width="25" height="30" viewBox="0 0 25 30" fill="none" xmlns="http://www.w3.org/2000/svg">
<path d="M20.7405 8.26687L21.9751 6.59509L19.4905 4.76994L18.1788 6.53374C16.9134 5.88957 15.5091 5.44479 14.0276 5.26074V3.06748H17.8856V0H7.08314V3.06748H10.9412V5.26074C4.76833 6.02761 -0.015625 11.2423 -0.015625 17.5767C-0.015625 24.4325 5.58623 30 12.4844 30C19.3825 30 24.9844 24.4325 24.9844 17.5767C24.9998 13.865 23.3486 10.5368 20.7405 8.26687ZM12.4998 26.9325C7.31462 26.9325 3.08623 22.7301 3.08623 17.5767C3.08623 12.4233 7.31462 8.22086 12.4998 8.22086C17.685 8.22086 21.9134 12.4233 21.9134 17.5767C21.9134 22.7454 17.685 26.9325 12.4998 26.9325Z" fill="#0781FE"/>
<path d="M13.6586 16.4261V10.5059H11.3438V17.5918C11.3438 18.2206 11.8684 18.7421 12.5012 18.7421H19.6308V16.4414H13.6586V16.4261Z" fill="#0781FE"/>
</svg>
