<?xml version="1.0" encoding="UTF-8"?>
<svg xmlns="http://www.w3.org/2000/svg" width="35" height="36" viewBox="0 0 35 36" fill="none">
  <rect y="0.710938" width="35" height="35" rx="17.5" fill="url(#paint0_linear_15981_927)"></rect>
  <path d="M25.2418 11.408C25.1268 11.2773 24.9927 11.1839 24.8394 11.1278C24.207 10.9224 22.4823 10.3807 20.7769 10.0444C20.7002 10.0444 20.681 10.0444 20.6236 10.1192C20.5086 10.3059 20.2403 10.7169 20.0678 11.1465C20.0678 11.1465 18.8031 10.9971 17.5 10.9971C16.197 10.9971 14.9322 11.1465 14.9322 11.1465C14.7597 10.7356 14.4915 10.3059 14.3765 10.1192C14.319 10.0444 14.2998 10.0444 14.2232 10.0444C12.5177 10.3807 10.793 10.9224 10.1607 11.1278C10.0074 11.1839 9.87323 11.2773 9.75825 11.408C5.88737 16.0965 6.3856 22.5034 6.50058 23.4374C6.50058 23.5121 6.5389 23.5868 6.61556 23.6242C8.49351 25.1746 11.5787 26.2393 12.0003 26.37C12.0386 26.3887 12.0578 26.37 12.077 26.3514C12.671 25.6415 13.0926 24.7636 13.2076 24.5395C13.2267 24.5021 13.2076 24.4648 13.1692 24.4461C12.1536 24.0165 11.4829 23.5495 11.4829 23.5495C11.6362 23.4374 11.8278 23.2693 11.8278 23.2693C13.1501 23.9978 15.8712 24.4648 17.5 24.4648C19.1289 24.4648 21.85 24.0165 23.1722 23.2693C23.1722 23.2693 23.3638 23.4374 23.5171 23.5495C23.5171 23.5495 22.8464 24.0165 21.8116 24.4274C21.7925 24.4461 21.7733 24.4834 21.7733 24.5208C21.8883 24.7636 22.329 25.6229 22.9231 26.3514C22.9423 26.37 22.9806 26.3887 22.9997 26.37C23.4213 26.2393 26.5065 25.1746 28.4036 23.6242C28.4611 23.5682 28.4995 23.5121 28.5186 23.4374C28.5953 22.5034 29.1127 16.0965 25.2418 11.408ZM13.7633 21.1212C12.6902 21.1212 11.8278 20.1499 11.8278 18.9731C11.8278 17.7963 12.6902 16.825 13.7633 16.825C14.8364 16.825 15.6987 17.7963 15.6987 18.9731C15.6987 20.1499 14.8364 21.1212 13.7633 21.1212ZM21.2368 21.1212C20.1636 21.1212 19.3013 20.1499 19.3013 18.9731C19.3013 17.7963 20.1636 16.825 21.2368 16.825C22.3099 16.825 23.1722 17.7963 23.1722 18.9731C23.1722 20.1499 22.3099 21.1212 21.2368 21.1212Z" fill="white"></path>
  <defs>
    <linearGradient id="paint0_linear_15981_927" x1="0" y1="0.710937" x2="35" y2="35.7109" gradientUnits="userSpaceOnUse">
      <stop stop-color="#5762DD"></stop>
      <stop offset="1" stop-color="#3A4298"></stop>
    </linearGradient>
  </defs>
</svg>
