<?xml version="1.0" encoding="UTF-8"?><svg id="Layer_2" xmlns="http://www.w3.org/2000/svg" xmlns:xlink="http://www.w3.org/1999/xlink" viewBox="0 0 304.57 106.6"><defs><style>.cls-1{fill:#262729;stroke:#535456;stroke-width:4.57px;}.cls-2{fill:url(#linear-gradient);}.cls-3{fill:#fff;}.cls-4{fill:url(#linear-gradient-3);}.cls-5{fill:url(#linear-gradient-4);}.cls-6{fill:url(#linear-gradient-2);}</style><linearGradient id="linear-gradient" x1="83.38" y1="325.6" x2="36.59" y2="274.9" gradientTransform="translate(0 348.26) scale(1 -1)" gradientUnits="userSpaceOnUse"><stop offset="0" stop-color="#00c4ff"/><stop offset="1" stop-color="#00e4ff"/></linearGradient><linearGradient id="linear-gradient-2" x1="43.74" y1="321.06" x2="77.3" y2="295.63" gradientTransform="translate(0 348.26) scale(1 -1)" gradientUnits="userSpaceOnUse"><stop offset="0" stop-color="#12d770"/><stop offset="1" stop-color="#00f076"/></linearGradient><linearGradient id="linear-gradient-3" x1="77.18" y1="294.2" x2="43.63" y2="268.78" gradientTransform="translate(0 348.26) scale(1 -1)" gradientUnits="userSpaceOnUse"><stop offset="0" stop-color="#fb3746"/><stop offset="1" stop-color="#e72950"/></linearGradient><linearGradient id="linear-gradient-4" x1="68.19" y1="294.96" x2="88.53" y2="294.96" gradientTransform="translate(0 348.26) scale(1 -1)" gradientUnits="userSpaceOnUse"><stop offset="0" stop-color="#ffbe00"/><stop offset="1" stop-color="#ffd703"/></linearGradient></defs><g id="google-store"><rect class="cls-1" x="2.28" y="2.28" width="300" height="102.03" rx="12.94" ry="12.94"/><path class="cls-3" d="M123.96,38.33c0,.87-.18,1.63-.54,2.28-.35,.64-.86,1.14-1.55,1.5-.67,.36-1.48,.54-2.42,.54h-2.88v-8.6h2.88c.94,0,1.75,.18,2.42,.54,.68,.35,1.2,.84,1.55,1.49,.36,.64,.54,1.4,.54,2.27Zm-4.62,3.06c1.03,0,1.82-.27,2.38-.8,.55-.54,.83-1.29,.83-2.25s-.28-1.72-.83-2.25c-.55-.54-1.34-.8-2.38-.8h-1.38v6.12h1.38Zm9.08-5.54c.65,0,1.23,.14,1.75,.41,.52,.28,.93,.67,1.22,1.19,.29,.52,.44,1.13,.44,1.83s-.15,1.32-.44,1.84-.7,.92-1.22,1.19c-.52,.28-1.1,.41-1.75,.41s-1.23-.14-1.75-.41c-.51-.28-.92-.67-1.22-1.19-.29-.53-.44-1.14-.44-1.84s.15-1.31,.44-1.83c.3-.52,.71-.92,1.22-1.19,.52-.28,1.1-.41,1.75-.41Zm0,1.21c-.36,0-.69,.08-.99,.24-.3,.16-.54,.41-.73,.76-.18,.33-.27,.74-.27,1.23s.09,.91,.27,1.24c.19,.33,.43,.58,.73,.74,.3,.16,.63,.24,.99,.24s.69-.08,.99-.24c.3-.16,.54-.41,.72-.74,.19-.33,.28-.75,.28-1.24s-.09-.9-.28-1.23c-.18-.34-.42-.59-.72-.76-.3-.16-.63-.24-.99-.24Zm14.15-1.12l-1.86,6.71h-1.54l-1.66-5.19-1.68,5.19h-1.52l-1.86-6.71h1.4l1.28,5.43,1.68-5.43h1.46l1.71,5.43,1.28-5.43h1.32Zm4.7-.11c.78,0,1.41,.25,1.88,.76,.47,.5,.71,1.22,.71,2.16v3.91h-1.39v-3.76c0-.6-.15-1.06-.46-1.39-.31-.33-.73-.5-1.27-.5s-.99,.18-1.33,.54c-.33,.35-.5,.86-.5,1.55v3.57h-1.39v-6.71h1.39v1.47c.18-.5,.48-.89,.9-1.17,.42-.28,.91-.41,1.46-.41Zm5.6-2.19v9.02h-1.39v-9.02h1.39Zm4.75,2.22c.65,0,1.23,.14,1.75,.41,.52,.28,.93,.67,1.22,1.19,.29,.52,.44,1.13,.44,1.83s-.15,1.32-.44,1.84c-.29,.52-.7,.92-1.22,1.19-.52,.28-1.11,.41-1.75,.41s-1.24-.14-1.75-.41c-.51-.28-.92-.67-1.22-1.19-.29-.53-.44-1.14-.44-1.84s.15-1.31,.44-1.83c.3-.52,.71-.92,1.22-1.19,.52-.28,1.1-.41,1.75-.41Zm0,1.21c-.36,0-.69,.08-.99,.24-.3,.16-.55,.41-.73,.76-.18,.33-.27,.74-.27,1.23s.09,.91,.27,1.24c.19,.33,.43,.58,.73,.74,.3,.16,.63,.24,.99,.24s.69-.08,.99-.24c.3-.16,.54-.41,.72-.74,.19-.33,.28-.75,.28-1.24s-.09-.9-.28-1.23c-.18-.34-.42-.59-.72-.76-.3-.16-.63-.24-.99-.24Zm7.44-1.21c.61,0,1.13,.15,1.56,.45,.43,.3,.74,.7,.91,1.19v-1.56h1.39v6.71h-1.39v-1.56c-.18,.5-.48,.89-.91,1.19-.43,.3-.95,.45-1.56,.45s-1.11-.14-1.57-.41c-.45-.28-.81-.67-1.07-1.19-.26-.52-.39-1.13-.39-1.84s.13-1.31,.39-1.83c.26-.52,.62-.92,1.07-1.19,.46-.28,.99-.41,1.57-.41Zm.43,1.22c-.62,0-1.11,.2-1.49,.6-.37,.39-.55,.93-.55,1.62s.18,1.23,.55,1.63c.37,.39,.87,.58,1.49,.58,.39,0,.74-.09,1.05-.27,.31-.19,.55-.45,.73-.78,.18-.33,.27-.72,.27-1.17s-.09-.82-.27-1.16c-.18-.34-.42-.6-.73-.78-.31-.19-.66-.28-1.05-.28Zm7.8-1.22c.61,0,1.13,.15,1.56,.45,.43,.3,.73,.7,.9,1.19v-3.86h1.4v9.02h-1.4v-1.56c-.17,.5-.47,.89-.9,1.19-.43,.3-.95,.45-1.56,.45s-1.11-.14-1.57-.41c-.46-.28-.81-.67-1.07-1.19-.26-.52-.39-1.13-.39-1.84s.13-1.31,.39-1.83c.26-.52,.62-.92,1.07-1.19,.46-.28,.99-.41,1.57-.41Zm.43,1.22c-.62,0-1.11,.2-1.49,.6-.37,.39-.55,.93-.55,1.62s.18,1.23,.55,1.63c.37,.39,.87,.58,1.49,.58,.39,0,.74-.09,1.05-.27,.31-.19,.55-.45,.73-.78,.18-.33,.27-.72,.27-1.17s-.09-.82-.27-1.16c-.18-.34-.42-.6-.73-.78-.31-.19-.66-.28-1.05-.28Zm11.03-1.22c.65,0,1.24,.14,1.75,.41,.52,.28,.93,.67,1.22,1.19,.29,.52,.44,1.13,.44,1.83s-.15,1.32-.44,1.84-.7,.92-1.22,1.19c-.52,.28-1.1,.41-1.75,.41s-1.23-.14-1.75-.41c-.51-.28-.92-.67-1.22-1.19-.29-.53-.44-1.14-.44-1.84s.15-1.31,.44-1.83c.3-.52,.71-.92,1.22-1.19,.52-.28,1.11-.41,1.75-.41Zm0,1.21c-.36,0-.69,.08-.99,.24-.3,.16-.54,.41-.73,.76-.18,.33-.27,.74-.27,1.23s.09,.91,.27,1.24c.19,.33,.43,.58,.73,.74,.3,.16,.63,.24,.99,.24s.69-.08,.99-.24c.3-.16,.54-.41,.72-.74,.19-.33,.28-.75,.28-1.24s-.09-.9-.28-1.23c-.18-.34-.42-.59-.72-.76-.3-.16-.63-.24-.99-.24Zm8.5-1.23c.78,0,1.41,.25,1.88,.76,.47,.5,.71,1.22,.71,2.16v3.91h-1.39v-3.76c0-.6-.15-1.06-.46-1.39-.31-.33-.73-.5-1.27-.5s-.99,.18-1.33,.54c-.33,.35-.5,.86-.5,1.55v3.57h-1.39v-6.71h1.39v1.47c.18-.5,.48-.89,.9-1.17,.42-.28,.91-.41,1.46-.41Zm10.44,5.62v1.21h-.85c-.72,0-1.26-.17-1.63-.51-.37-.35-.55-.93-.55-1.73v-3.29h-.96v-1.18h.96v-1.67h1.4v1.67h1.62v1.18h-1.62v3.31c0,.38,.07,.65,.21,.79,.15,.15,.4,.22,.76,.22h.67Zm5.05-5.62c.78,0,1.41,.25,1.88,.76s.71,1.22,.71,2.16v3.91h-1.39v-3.76c0-.6-.15-1.06-.46-1.39-.31-.33-.73-.5-1.27-.5s-.99,.18-1.33,.54c-.33,.35-.5,.86-.5,1.55v3.57h-1.39v-9.02h1.39v3.78c.18-.5,.48-.89,.9-1.17,.42-.28,.91-.41,1.46-.41Zm10.44,3.14c0,.23-.02,.43-.05,.6h-5.17c.02,.69,.22,1.2,.57,1.54,.36,.33,.8,.5,1.33,.5,.46,0,.85-.12,1.17-.35,.33-.24,.52-.55,.6-.94h1.49c-.09,.47-.28,.89-.56,1.25-.28,.37-.65,.65-1.11,.86-.45,.2-.96,.3-1.52,.3-.65,0-1.23-.14-1.73-.41-.49-.28-.88-.67-1.17-1.19-.28-.52-.43-1.13-.43-1.84s.14-1.31,.43-1.83c.28-.52,.67-.92,1.17-1.19,.5-.28,1.08-.41,1.73-.41s1.23,.14,1.72,.41c.5,.27,.87,.64,1.13,1.12,.27,.47,.4,1,.4,1.58Zm-1.4-.04c.02-.44-.06-.8-.23-1.1-.16-.3-.39-.52-.68-.66-.28-.15-.6-.22-.94-.22-.54,0-1,.17-1.36,.5-.37,.33-.56,.82-.6,1.47h3.81Z"/><path class="cls-3" d="M125.26,55.72c2.1,0,3.83,.52,5.21,1.56,1.38,1.02,2.27,2.41,2.66,4.17h-3.61c-.34-.78-.89-1.4-1.63-1.85-.73-.47-1.6-.71-2.61-.71s-1.87,.23-2.63,.68c-.76,.45-1.36,1.1-1.78,1.95-.42,.84-.63,1.84-.63,2.97,0,1.8,.48,3.21,1.44,4.22,.97,1.01,2.3,1.51,3.97,1.51,1.23,0,2.29-.37,3.17-1.1,.89-.73,1.47-1.75,1.73-3.05h-5.82v-2.46h8.7v3.31c-.24,1.14-.72,2.18-1.44,3.14-.7,.96-1.62,1.73-2.78,2.31-1.14,.57-2.44,.85-3.92,.85-1.69,0-3.18-.37-4.48-1.1-1.28-.75-2.28-1.78-3-3.09-.7-1.33-1.05-2.85-1.05-4.56s.35-3.22,1.05-4.53c.71-1.33,1.71-2.37,3-3.12,1.28-.75,2.77-1.12,4.46-1.12Zm16.97,3.7c1.32,0,2.49,.28,3.53,.83,1.06,.55,1.88,1.36,2.49,2.41,.6,1.04,.9,2.27,.9,3.68s-.3,2.64-.9,3.68c-.6,1.04-1.43,1.84-2.49,2.41-1.04,.55-2.22,.83-3.53,.83s-2.5-.28-3.56-.83c-1.04-.57-1.86-1.37-2.46-2.41-.6-1.04-.9-2.27-.9-3.68s.3-2.64,.9-3.68c.6-1.06,1.42-1.86,2.46-2.41,1.06-.55,2.24-.83,3.56-.83Zm0,2.97c-.96,0-1.77,.34-2.44,1.02-.67,.67-1,1.64-1,2.92s.33,2.27,1,2.95c.67,.67,1.48,1,2.44,1s1.77-.33,2.44-1c.67-.68,1-1.66,1-2.95s-.33-2.26-1-2.92c-.67-.68-1.48-1.02-2.44-1.02Zm15.59-2.97c1.32,0,2.49,.28,3.53,.83,1.06,.55,1.88,1.36,2.49,2.41,.6,1.04,.9,2.27,.9,3.68s-.3,2.64-.9,3.68c-.6,1.04-1.43,1.84-2.49,2.41-1.04,.55-2.22,.83-3.53,.83s-2.5-.28-3.56-.83c-1.04-.57-1.86-1.37-2.46-2.41-.6-1.04-.9-2.27-.9-3.68s.3-2.64,.9-3.68c.6-1.06,1.42-1.86,2.46-2.41,1.06-.55,2.24-.83,3.56-.83Zm0,2.97c-.96,0-1.77,.34-2.44,1.02-.67,.67-1,1.64-1,2.92s.33,2.27,1,2.95c.67,.67,1.48,1,2.44,1s1.77-.33,2.44-1c.67-.68,1-1.66,1-2.95s-.33-2.26-1-2.92c-.67-.68-1.48-1.02-2.44-1.02Zm14.63-2.97c1.14,0,2.11,.27,2.92,.8,.81,.54,1.39,1.26,1.73,2.17v-2.8h3.41v13.55c0,1.25-.25,2.37-.76,3.36-.49,1.01-1.23,1.79-2.22,2.36-.97,.57-2.16,.85-3.56,.85-1.95,0-3.53-.46-4.73-1.39-1.2-.93-1.93-2.18-2.19-3.78h3.39c.19,.68,.57,1.21,1.12,1.58,.57,.39,1.29,.58,2.17,.58,1.01,0,1.82-.3,2.44-.9,.62-.58,.93-1.48,.93-2.68v-2.88c-.34,.91-.92,1.64-1.73,2.19-.81,.54-1.79,.8-2.92,.8s-2.16-.28-3.07-.83c-.91-.55-1.62-1.35-2.14-2.39-.5-1.06-.76-2.29-.76-3.7s.25-2.64,.76-3.68c.52-1.06,1.24-1.86,2.14-2.41,.91-.55,1.93-.83,3.07-.83Zm1.07,3c-1.07,0-1.93,.35-2.58,1.05-.65,.7-.97,1.66-.97,2.88s.32,2.18,.97,2.88c.65,.68,1.51,1.02,2.58,1.02s1.89-.35,2.56-1.05c.68-.71,1.02-1.66,1.02-2.85s-.34-2.15-1.02-2.85c-.67-.71-1.52-1.07-2.56-1.07Zm13.54-7.36v18.03h-3.44v-18.03h3.44Zm15.8,10.77c0,.34-.04,.73-.12,1.17h-9.89c.05,1.2,.37,2.09,.97,2.66,.6,.57,1.35,.85,2.24,.85,.8,0,1.45-.19,1.97-.58,.54-.39,.88-.92,1.02-1.58h3.63c-.18,.94-.56,1.79-1.15,2.53s-1.34,1.33-2.27,1.75c-.91,.42-1.92,.63-3.05,.63-1.32,0-2.49-.28-3.51-.83-1.02-.57-1.82-1.37-2.39-2.41-.57-1.04-.85-2.27-.85-3.68s.28-2.64,.85-3.68c.57-1.06,1.36-1.86,2.39-2.41,1.02-.55,2.19-.83,3.51-.83s2.49,.28,3.48,.83c1.01,.55,1.78,1.32,2.31,2.29,.55,.96,.83,2.05,.83,3.29Zm-3.46-.34c.05-1.1-.24-1.94-.88-2.51-.62-.57-1.38-.85-2.29-.85s-1.71,.28-2.34,.85c-.63,.57-.98,1.41-1.05,2.51h6.55Zm14.64,1.22v6.38h-3.44v-17.2h6.26c2.03,0,3.56,.49,4.58,1.46,1.04,.97,1.56,2.3,1.56,3.97s-.54,2.95-1.61,3.92c-1.06,.97-2.57,1.46-4.53,1.46h-2.83Zm2.46-2.75c2.01,0,3.02-.88,3.02-2.63,0-.86-.23-1.52-.71-1.97-.47-.45-1.24-.68-2.31-.68h-2.46v5.29h2.46Zm12.17-8.89v18.03h-3.44v-18.03h3.44Zm8.4,4.36c1.14,0,2.11,.27,2.92,.8,.81,.54,1.39,1.26,1.73,2.17v-2.8h3.41v13.5h-3.41v-2.83c-.34,.91-.92,1.64-1.73,2.19-.81,.54-1.79,.8-2.92,.8s-2.16-.28-3.07-.83c-.91-.55-1.62-1.35-2.14-2.39-.5-1.06-.76-2.29-.76-3.7s.25-2.64,.76-3.68c.52-1.06,1.23-1.86,2.14-2.41,.91-.55,1.93-.83,3.07-.83Zm1.07,3c-1.07,0-1.93,.35-2.58,1.05-.65,.7-.97,1.66-.97,2.88s.32,2.18,.97,2.88c.65,.68,1.51,1.02,2.58,1.02s1.89-.35,2.56-1.05c.68-.71,1.02-1.66,1.02-2.85s-.34-2.15-1.02-2.85c-.67-.71-1.52-1.07-2.56-1.07Zm12.42-2.83l3.68,9.16,3.41-9.16h3.78l-8.26,19.93h-3.8l3.05-6.82-5.68-13.11h3.83Z"/><path class="cls-2" d="M42.64,30.8v44.99c0,2.61,2.81,4.23,5.07,2.93l38.93-22.5c2.26-1.31,2.26-4.57,0-5.87L47.71,27.87c-2.25-1.3-5.07,.33-5.07,2.93Z"/><path class="cls-6" d="M76.62,44.58l-28.91-16.71c-1.4-.81-3.02-.48-4.04,.51l24.58,24.92,8.37-8.72Z"/><path class="cls-4" d="M43.66,78.22c1.02,.99,2.64,1.31,4.04,.51l28.91-16.71-8.38-8.72-24.58,24.92Z"/><path class="cls-5" d="M86.63,50.37l-10.01-5.78-8.38,8.72,8.38,8.72,10.01-5.78c2.26-1.31,2.26-4.57,0-5.87Z"/></g></svg>