<?xml version="1.0" encoding="UTF-8"?>
<svg xmlns="http://www.w3.org/2000/svg" width="30" height="30" viewBox="0 0 30 30" fill="none">
  <path d="M22.7293 11.8931C21.015 10.1789 18.214 10.1789 16.4844 11.8931L14.9844 13.3931L13.4997 11.8931C11.7854 10.1789 8.98438 10.1789 7.27009 11.8931C5.5558 13.6074 5.5558 16.4084 7.27009 18.138C8.12723 18.9952 9.25989 19.4237 10.3925 19.4237C11.5252 19.4237 12.6578 18.9952 13.515 18.138L15.015 16.638L16.515 18.138C17.3415 18.9646 18.4589 19.4237 19.6374 19.4237C20.816 19.4237 21.9181 18.9646 22.7599 18.138C24.4436 16.4084 24.4436 13.6074 22.7293 11.8931ZM11.8772 16.5003C11.0507 17.3268 9.70376 17.3268 8.89254 16.5003C8.066 15.6737 8.066 14.3268 8.89254 13.5156C9.3058 13.1023 9.84152 12.9033 10.3925 12.9033C10.9283 12.9033 11.4793 13.1023 11.8925 13.5156L13.3925 15.0156L11.8772 16.5003ZM21.1068 16.5003C20.3109 17.2962 18.918 17.2962 18.1221 16.5003L16.6221 15.0003L18.1221 13.5003C18.9487 12.6737 20.2956 12.6737 21.1068 13.5003C21.5048 13.8982 21.7191 14.434 21.7191 15.0003C21.7191 15.5666 21.5048 16.1023 21.1068 16.5003Z" fill="#0781FE"></path>
  <path d="M15 0C6.7347 0 0 6.73469 0 15C0 23.2653 6.7347 30 15 30C23.2653 30 30 23.2653 30 15C30 6.73469 23.2653 0 15 0ZM15 26.8929C8.44898 26.8929 3.12245 21.5663 3.12245 15.0153C3.12245 8.46429 8.44898 3.13775 15 3.13775C21.551 3.13775 26.8775 8.46429 26.8775 15.0153C26.8775 21.5663 21.551 26.8929 15 26.8929Z" fill="#0781FE"></path>
</svg>
