<?xml version="1.0" encoding="UTF-8"?>
<svg xmlns="http://www.w3.org/2000/svg" width="33" height="30" viewBox="0 0 33 30" fill="none">
  <path d="M16.0562 15.8606C15.8415 15.8606 15.6421 15.8146 15.4428 15.738L0.920125 9.32776C0.352714 9.0824 0 8.53032 0 7.93224C0 7.33416 0.352714 6.76675 0.920125 6.52138L15.4428 0.126517C15.8415 -0.0421724 16.2862 -0.0421724 16.6849 0.126517L31.2076 6.52138C31.7596 6.76675 32.1277 7.31882 32.1277 7.93224C32.1277 8.54566 31.775 9.09773 31.2076 9.3431L16.6849 15.738C16.4856 15.8146 16.2709 15.8606 16.0562 15.8606ZM5.33672 7.93224L16.0562 12.6555L26.7756 7.93224L16.0562 3.20893L5.33672 7.93224Z" fill="#0781FE"></path>
  <path d="M16.0563 22.9302C15.8416 22.9302 15.6423 22.8842 15.4429 22.8075L0.920281 16.3973C0.138175 16.06 -0.199204 15.1552 0.138175 14.3731C0.475554 13.6063 1.38034 13.2536 2.14711 13.591L16.0563 19.7251L29.9655 13.591C30.7476 13.2536 31.6524 13.6063 31.9898 14.3731C32.3272 15.1552 31.9745 16.06 31.2077 16.3973L16.6851 22.7922C16.4857 22.8842 16.271 22.9302 16.0563 22.9302Z" fill="#0781FE"></path>
  <path d="M16.0563 22.9302C15.8416 22.9302 15.6423 22.8842 15.4429 22.8075L0.920281 16.3973C0.138175 16.06 -0.199204 15.1552 0.138175 14.3731C0.475554 13.6063 1.38034 13.2536 2.14711 13.591L16.0563 19.7251L29.9655 13.591C30.7476 13.2536 31.6524 13.6063 31.9898 14.3731C32.3272 15.1552 31.9745 16.06 31.2077 16.3973L16.6851 22.7922C16.4857 22.8842 16.271 22.9302 16.0563 22.9302Z" fill="#0781FE"></path>
  <path d="M16.0563 30.0009C15.8416 30.0009 15.6423 29.9549 15.4429 29.8782L0.920281 23.468C0.138175 23.1306 -0.199204 22.2258 0.138175 21.4437C0.475554 20.6616 1.38034 20.3242 2.16245 20.6616L16.0717 26.7958L29.9809 20.6616C30.763 20.3242 31.6678 20.6769 32.0052 21.4437C32.3425 22.2258 31.9898 23.1306 31.2231 23.468L16.7004 29.8629C16.4857 29.9549 16.271 30.0009 16.0563 30.0009Z" fill="#0781FE"></path>
</svg>
