<?xml version="1.0" encoding="UTF-8"?>
<svg xmlns="http://www.w3.org/2000/svg" width="30" height="30" viewBox="0 0 30 30" fill="none">
  <path d="M18.1802 21.2307H9.28906V18.9312H18.1802C18.9467 18.9312 19.5752 18.3027 19.5752 17.5362C19.5752 16.7697 18.9467 16.1412 18.1802 16.1412H15.007V13.8418H18.1802C20.2191 13.8418 21.8746 15.4974 21.8746 17.5362C21.8746 19.5751 20.2191 21.2307 18.1802 21.2307Z" fill="#0781FE"></path>
  <path d="M15.0083 16.1408H11.8351C9.79623 16.1408 8.14062 14.4852 8.14062 12.4464C8.14062 10.4075 9.79623 8.75195 11.8351 8.75195H20.7262V11.0514H11.8351C11.0686 11.0514 10.4401 11.6799 10.4401 12.4464C10.4401 13.2129 11.0686 13.8414 11.8351 13.8414H15.0083V16.1408Z" fill="#0781FE"></path>
  <path d="M16.1588 6.05469H13.8594V23.929H16.1588V6.05469Z" fill="#0781FE"></path>
  <path d="M26.932 28.0837C26.6408 28.0837 26.3495 27.9764 26.1196 27.7464L2.25139 3.87828C1.80683 3.43372 1.80683 2.6979 2.25139 2.25334C2.69595 1.80878 3.43176 1.80878 3.87632 2.25334L27.7445 26.1215C28.189 26.5661 28.189 27.3019 27.7445 27.7464C27.5145 27.9611 27.2233 28.0837 26.932 28.0837Z" fill="#0781FE"></path>
  <path d="M28.467 30H1.53296C0.689831 30 0 29.3102 0 28.467V1.53296C0 0.689831 0.689831 0 1.53296 0H28.4517C29.2948 0 29.9846 0.689831 29.9846 1.53296V28.4517C30 29.3102 29.3102 30 28.467 30ZM3.06592 26.9341H26.9187V3.06592H3.06592V26.9341Z" fill="#0781FE"></path>
</svg>
