<svg width="30" height="30" viewBox="0 0 30 30" fill="none" xmlns="http://www.w3.org/2000/svg">
<path d="M9.35344 14.916H6.61328V17.9819H9.35344V14.916Z" fill="#0781FE"/>
<path d="M14.0331 14.916H11.293V17.9819H14.0331V14.916Z" fill="#0781FE"/>
<path d="M18.7089 14.916H15.9688V17.9819H18.7089V14.916Z" fill="#0781FE"/>
<path d="M23.3847 14.916H20.6445V17.9819H23.3847V14.916Z" fill="#0781FE"/>
<path d="M9.35344 9.41211H6.61328V12.478H9.35344V9.41211Z" fill="#0781FE"/>
<path d="M14.0331 9.41211H11.293V12.478H14.0331V9.41211Z" fill="#0781FE"/>
<path d="M18.7089 9.41211H15.9688V12.478H18.7089V9.41211Z" fill="#0781FE"/>
<path d="M23.3847 9.41211H20.6445V12.478H23.3847V9.41211Z" fill="#0781FE"/>
<path d="M9.35344 20.4199H6.61328V23.4858H9.35344V20.4199Z" fill="#0781FE"/>
<path d="M14.0331 20.4199H11.293V23.4858H14.0331V20.4199Z" fill="#0781FE"/>
<path d="M18.7089 20.4199H15.9688V23.4858H18.7089V20.4199Z" fill="#0781FE"/>
<path d="M25.2756 2.89729H18.8819L17.748 0.812468C17.4803 0.321921 16.9449 0 16.3622 0H13.6378C13.0551 0 12.5197 0.321921 12.2362 0.812468L11.1181 2.89729H4.72441C2.12598 2.89729 0 4.96679 0 7.49617V25.3858C0 27.9152 2.12598 29.9847 4.72441 29.9847H25.2756C27.874 29.9847 30 27.9152 30 25.3858V7.49617C30 4.96679 27.874 2.89729 25.2756 2.89729ZM26.8504 25.4011C26.8504 26.2443 26.1417 26.9341 25.2756 26.9341H4.72441C3.85827 26.9341 3.14961 26.2443 3.14961 25.4011V7.49617C3.14961 6.65304 3.85827 5.96321 4.72441 5.96321H17.937H25.2756C26.1417 5.96321 26.8504 6.65304 26.8504 7.49617V25.4011Z" fill="#0781FE"/>
</svg>
