<?xml version="1.0" encoding="UTF-8"?>
<svg xmlns="http://www.w3.org/2000/svg" width="30" height="30" viewBox="0 0 30 30" fill="none">
  <path d="M28.7958 11.1196C27.8475 10 26.4626 9.35583 25.0025 9.35583H20.0351V6.59509C20.0351 2.96012 17.13 0 13.5625 0C12.7346 0 12.0572 0.690184 12.0572 1.53374V6.84049C12.0572 8.88037 10.7627 10.6135 8.9714 11.273C8.91119 10.4755 8.26392 9.83129 7.46613 9.83129H1.50527C0.677371 9.83129 0 10.5215 0 11.365V28.4663C0 29.3098 0.677371 30 1.50527 30H7.46613C8.02308 30 8.47466 29.6779 8.74561 29.2331C9.31761 29.4939 9.96488 29.6472 10.6272 29.6472H23.8133C26.1014 29.6472 28.0883 27.8988 28.4195 25.5982L29.9398 15.1994C30.1656 13.727 29.7441 12.2546 28.7958 11.1196ZM5.96086 26.9325H3.01054V12.8988H5.96086V13.0982V24.8926V26.9325ZM26.9744 14.7546L25.4541 25.1534C25.3337 25.9663 24.6262 26.5951 23.8133 26.5951H10.6272C9.70898 26.5951 8.9714 25.8436 8.9714 24.908V14.4785C12.4335 13.7423 15.0527 10.5828 15.0527 6.85583V3.42025C16.2117 3.98773 17.0095 5.19939 17.0095 6.59509V10.8896C17.0095 11.7331 17.6869 12.4233 18.5148 12.4233H24.9875C25.5745 12.4233 26.1164 12.6687 26.4927 13.1288C26.8991 13.5736 27.0647 14.1564 26.9744 14.7546Z" fill="#0781FE"></path>
</svg>
