<?xml version="1.0" encoding="UTF-8"?>
<svg xmlns="http://www.w3.org/2000/svg" width="35" height="36" viewBox="0 0 35 36" fill="none">
  <circle cx="17.5" cy="18.2109" r="17" fill="url(#paint0_linear_15981_903)" stroke="white"></circle>
  <path d="M18.6756 21.9175C18.6756 23.4869 17.425 24.7501 15.8992 24.7501C14.3609 24.7501 13.1228 23.4741 13.1228 21.9175C13.1228 20.3609 14.3609 19.0722 15.8867 19.0722C16.1618 19.0722 16.437 19.1233 16.6996 19.2126V16.3418C16.437 16.2907 16.1618 16.2652 15.8867 16.2652C12.8351 16.2652 10.3589 18.7915 10.3589 21.9048C10.3589 25.018 12.8351 27.5443 15.8867 27.5443C18.9382 27.5443 21.4145 25.018 21.4145 21.9048V15.2317C22.4525 16.0993 23.8407 16.699 25.6667 16.699V13.892C22.2024 13.892 21.5396 10.4215 21.427 9.61768H18.6756V21.9175Z" fill="#FE2B54"></path>
  <path d="M17.6501 21.1645C17.6501 22.7339 16.3994 23.9971 14.8737 23.9971C13.3354 23.9971 12.0973 22.7211 12.0973 21.1645C12.0973 19.6079 13.3479 18.332 14.8737 18.332C15.1488 18.332 15.424 18.383 15.6866 18.4723V15.5888C15.4114 15.5505 15.1363 15.525 14.8612 15.525C11.8096 15.525 9.33334 18.0513 9.33334 21.1645C9.33334 24.2778 11.8096 26.8041 14.8612 26.8041C17.9127 26.8041 20.389 24.2778 20.389 21.1645V14.4915C21.427 15.3591 22.8152 15.9588 24.6412 15.9588V13.1518C21.1769 13.1518 20.514 9.68127 20.4015 8.87744H17.6501V21.1645Z" fill="#24F3ED"></path>
  <path d="M20.4015 14.4917C21.4395 15.3593 22.8277 15.959 24.6537 15.959V13.7644C23.8783 13.5858 23.2905 13.203 22.8402 12.7437C21.4145 12.0419 20.8142 10.5746 20.5641 9.61768H18.6881V21.9175C18.6881 21.9941 18.6631 22.1344 18.6631 22.1472C18.6006 22.6703 18.3254 23.959 16.9998 24.5204C15.424 25.1839 14.2609 24.2524 13.9107 23.8697V23.8569C13.8857 23.8314 13.8607 23.8186 13.8357 23.7931C12.8101 23.3721 12.0848 22.3641 12.0848 21.1647C12.0848 19.5953 13.3354 18.3322 14.8612 18.3322C15.1363 18.3322 15.4115 18.3832 15.6741 18.4725V16.8521V16.2907C15.6741 16.2907 12.8476 16.1504 11.1718 18.9957C9.49594 21.8537 10.609 24.6735 12.1848 26.0642C13.0227 26.6129 15.449 27.5316 18.0128 25.7963C20.5766 24.0611 20.389 21.1647 20.389 21.1647V20.8075V14.4917H20.4015Z" fill="#FEFEFE"></path>
  <defs>
    <linearGradient id="paint0_linear_15981_903" x1="0" y1="0.710938" x2="35" y2="35.7109" gradientUnits="userSpaceOnUse">
      <stop stop-color="#303030"></stop>
      <stop offset="1"></stop>
    </linearGradient>
  </defs>
</svg>
