<?xml version="1.0" encoding="UTF-8"?>
<svg xmlns="http://www.w3.org/2000/svg" width="30" height="30" viewBox="0 0 30 30" fill="none">
  <path d="M27.3872 16.7698V13.2302C28.8982 12.7268 30.0157 11.311 30.0157 9.64342C30.0157 7.55113 28.3158 5.83639 26.2067 5.83639C25.2623 5.83639 24.4124 6.19822 23.7513 6.74882L18.7618 4.18458C18.7775 4.05873 18.7933 3.93288 18.7933 3.80703C18.809 1.699 17.0934 0 15 0C12.9066 0 11.2067 1.699 11.2067 3.80703C11.2067 3.93288 11.2382 4.05873 11.2382 4.18458L6.24869 6.74882C5.58762 6.18249 4.73767 5.83639 3.80902 5.83639C1.6999 5.83639 0 7.5354 0 9.64342C0 11.3267 1.10178 12.7425 2.62854 13.2302V16.7698C1.10178 17.2732 0 18.6733 0 20.3566C0 22.4489 1.6999 24.1636 3.80902 24.1636C4.75341 24.1636 5.60336 23.8018 6.26443 23.2355L11.2539 25.7997C11.2382 25.9255 11.2225 26.0514 11.2225 26.1772C11.2225 28.2695 12.9223 29.9843 15.0315 29.9843C17.1249 29.9843 18.8405 28.2853 18.8405 26.1772C18.8405 26.0514 18.809 25.9255 18.809 25.7997L23.7985 23.2355C24.4596 23.8018 25.3095 24.1636 26.2539 24.1636C28.3473 24.1636 30.063 22.4646 30.063 20.3566C30 18.6733 28.8982 17.2732 27.3872 16.7698ZM26.2067 8.19612C26.9937 8.19612 27.6548 8.84111 27.6548 9.64342C27.6548 10.43 27.0094 11.0907 26.2067 11.0907C25.4197 11.0907 24.7587 10.4457 24.7587 9.64342C24.7587 8.84111 25.4197 8.19612 26.2067 8.19612ZM15 2.35973C15.787 2.35973 16.4481 3.00472 16.4481 3.80703C16.4481 4.5936 15.8027 5.25433 15 5.25433C14.1973 5.25433 13.5677 4.5936 13.5677 3.80703C13.5677 3.00472 14.213 2.35973 15 2.35973ZM3.80902 8.19612C4.59601 8.19612 5.25708 8.84111 5.25708 9.64342C5.25708 10.43 4.61175 11.0907 3.80902 11.0907C3.02204 11.0907 2.36097 10.4457 2.36097 9.64342C2.36097 8.84111 3.0063 8.19612 3.80902 8.19612ZM3.80902 21.8039C3.02204 21.8039 2.36097 21.1589 2.36097 20.3566C2.36097 19.5543 3.0063 18.9093 3.80902 18.9093C4.59601 18.9093 5.25708 19.5543 5.25708 20.3566C5.25708 21.1589 4.59601 21.8039 3.80902 21.8039ZM15 27.6403C14.213 27.6403 13.5519 26.9953 13.5519 26.193C13.5519 25.4064 14.1973 24.7457 15 24.7457C15.8027 24.7457 16.4481 25.3907 16.4481 26.193C16.4481 26.9796 15.8027 27.6403 15 27.6403ZM15 22.3859C13.8825 22.3859 12.8909 22.8736 12.1983 23.6445L7.49213 21.2218C7.55509 20.9386 7.60231 20.6555 7.60231 20.3566C7.60231 18.6733 6.50052 17.2575 4.97377 16.7698V13.2302C6.48478 12.7268 7.60231 11.311 7.60231 9.64342C7.60231 9.34452 7.55509 9.06135 7.49213 8.77819L12.1983 6.35553C12.8909 7.12638 13.8825 7.61405 15 7.61405C16.1175 7.61405 17.1091 7.12638 17.8017 6.35553L22.5079 8.77819C22.4449 9.06135 22.3977 9.34452 22.3977 9.64342C22.3977 11.3267 23.4995 12.7425 25.0262 13.2302V16.7698C23.5152 17.2732 22.3977 18.689 22.3977 20.3566C22.3977 20.6555 22.4449 20.9386 22.5079 21.2218L17.8017 23.6445C17.1091 22.8894 16.1175 22.3859 15 22.3859ZM26.2067 21.8039C25.4197 21.8039 24.7587 21.1589 24.7587 20.3566C24.7587 19.5543 25.404 18.9093 26.2067 18.9093C26.9937 18.9093 27.6548 19.5543 27.6548 20.3566C27.6548 21.1589 26.9937 21.8039 26.2067 21.8039Z" fill="#0781FE"></path>
</svg>
