<?xml version="1.0" encoding="UTF-8"?>
<svg xmlns="http://www.w3.org/2000/svg" width="35" height="36" viewBox="0 0 35 36" fill="none">
  <circle cx="17.5" cy="18.2383" r="17.5" fill="#FF0076"></circle>
  <path d="M21.737 8.73828H13.263C10.356 8.73828 8 11.0943 8 14.0013V22.4753C8 25.3823 10.356 27.7383 13.263 27.7383H21.737C24.644 27.7383 27 25.3823 27 22.4753V14.0013C27 11.0943 24.644 8.73828 21.737 8.73828ZM25.689 22.4753C25.689 24.6603 23.922 26.4273 21.737 26.4273H13.263C11.078 26.4273 9.311 24.6603 9.311 22.4753V14.0013C9.311 11.8163 11.078 10.0493 13.263 10.0493H21.737C23.922 10.0493 25.689 11.8163 25.689 14.0013V22.4753Z" fill="white"></path>
  <path d="M17.4975 13.2617C14.7425 13.2617 12.5195 15.5037 12.5195 18.2397C12.5195 20.9757 14.7615 23.2177 17.4975 23.2177C20.2525 23.2177 22.4755 20.9757 22.4755 18.2397C22.4755 15.5037 20.2525 13.2617 17.4975 13.2617ZM17.4975 21.9067C15.4835 21.9067 13.8305 20.2537 13.8305 18.2397C13.8305 16.2257 15.4835 14.5727 17.4975 14.5727C19.5115 14.5727 21.1645 16.2257 21.1645 18.2397C21.1645 20.2537 19.5305 21.9067 17.4975 21.9067Z" fill="white"></path>
  <path d="M22.8715 14.0419C23.4802 14.0419 23.9735 13.5485 23.9735 12.9399C23.9735 12.3313 23.4802 11.8379 22.8715 11.8379C22.2629 11.8379 21.7695 12.3313 21.7695 12.9399C21.7695 13.5485 22.2629 14.0419 22.8715 14.0419Z" fill="white"></path>
</svg>
