<?xml version="1.0" encoding="UTF-8"?>
<svg xmlns="http://www.w3.org/2000/svg" width="35" height="36" viewBox="0 0 35 36" fill="none">
  <circle cx="17.5" cy="18.2383" r="17.5" fill="#F3302A"></circle>
  <path d="M26.7083 14.5994C26.4583 12.4466 25.1667 12.1966 24.0556 12.0022C22.9444 11.8077 17.5 11.7383 17.5 11.7383C17.5 11.7383 12.0694 11.7938 10.9444 12.0022C9.81944 12.1966 8.54167 12.4466 8.29167 14.5994C8.09722 16.3077 8 17.5716 8 18.6966C8 19.8216 8.09722 21.0855 8.29167 22.7938C8.54167 24.9466 9.83333 25.1966 10.9444 25.3911C12.0555 25.5855 17.5 25.6549 17.5 25.6549C17.5 25.6549 22.9306 25.5994 24.0556 25.3911C25.1667 25.1966 26.4583 24.9466 26.7083 22.7938C26.9028 21.0855 27 19.8216 27 18.6966C27 17.5716 26.9028 16.3077 26.7083 14.5994ZM15.2222 21.8494V15.5438L20.3611 18.6966L15.2222 21.8494Z" fill="white"></path>
</svg>
